<svg xmlns="http://www.w3.org/2000/svg" xmlns:svg="http://www.w3.org/2000/svg" xmlns:xlink="http://www.w3.org/1999/xlink" id="svg8" width="1080" height="1080" version="1.1" viewBox="0 0 1080 1080"><defs id="defs2"><filter style="color-interpolation-filters:sRGB" id="filter895"><feColorMatrix id="feColorMatrix891" result="color1" type="hueRotate" values="180"/><feColorMatrix id="feColorMatrix893" result="color2" values="-1 0 0 0 1 0 -1 0 0 1 0 0 -1 0 1 -0.21 -0.72 -0.07 2 0"/></filter><linearGradient id="linearGradient923"><stop style="stop-color:#2e66aa;stop-opacity:1" id="stop919" offset="0"/><stop style="stop-color:#562390;stop-opacity:1" id="stop921" offset="1"/></linearGradient><linearGradient id="linearGradient1601" x1="317.896" x2="766.389" y1="789.821" y2="306.964" gradientUnits="userSpaceOnUse" xlink:href="#linearGradient923"/></defs><metadata id="metadata5"/><g id="layer1" transform="translate(0,-11.249983)"><path style="opacity:1;fill:url(#linearGradient1601);fill-opacity:1;stroke:none;stroke-width:70.92058563;stroke-linecap:round;stroke-linejoin:miter;stroke-miterlimit:4;stroke-dasharray:none;stroke-dashoffset:0;stroke-opacity:.91121497;paint-order:normal" id="rect899" d="m 495.06905,311.38914 c -3.78207,-0.0434 -7.63775,0.42792 -11.48652,1.48256 -6.19472,1.69751 -19.15577,10.1095 -28.80338,18.69356 -9.64768,8.58409 -42.59088,37.66297 -73.20455,64.62082 -30.61367,26.95787 -58.44514,53.80273 -61.84886,59.6562 -7.70725,13.25446 -8.21935,39.98528 -1.02157,53.21531 6.18786,11.37379 15.86835,22.22136 30.88392,34.60273 6.10967,5.03782 21.15282,18.14415 33.43168,29.12731 97.74106,87.42746 102.46614,90.41096 127.02405,80.15 12.82146,-5.35714 27.67232,-22.44497 27.61365,-31.77471 -0.10014,-15.94275 -6.15861,-23.34468 -51.67671,-63.13827 -50.66182,-44.29049 -56.71605,-52.52479 -56.71606,-77.16002 0,-19.52824 10.32226,-32.51531 60.15451,-75.64011 22.83696,-19.76307 43.18192,-39.92265 45.20468,-44.80602 9.70755,-23.43632 -13.08032,-48.72668 -39.55484,-49.02936 z m 88.66518,133.24697 c -7.97891,0.155 -16.44955,3.06188 -25.67641,8.76437 -20.08331,12.41214 -21.62859,41.81102 -2.97127,56.49182 6.3263,4.97809 35.84961,30.99086 70.60697,62.21014 23.43629,21.0505 28.90128,43.99294 16.80614,70.53848 -2.12695,4.66812 -24.52935,26.56903 -49.7893,48.67426 -44.81037,39.21376 -51.81996,47.76782 -51.81997,63.21306 -3e-5,14.59177 25.02375,36.20283 42.35794,36.58356 3.1262,0.0686 10.44743,-1.86514 16.27047,-4.29809 10.85512,-4.53561 141.42916,-116.9113 154.15799,-132.67384 19.28892,-23.88563 16.35891,-57.99035 -6.96416,-81.13421 C 719.1155,545.6204 607.32256,451.37658 597.62514,447.32086 c -4.49499,-1.8799 -9.10358,-2.77779 -13.89091,-2.68475 z"/></g></svg>