<?xml version="1.0" encoding="UTF-8" standalone="no"?>
<!-- Created with Inkscape (http://www.inkscape.org/) -->

<svg
   xmlns:dc="http://purl.org/dc/elements/1.1/"
   xmlns:cc="http://creativecommons.org/ns#"
   xmlns:rdf="http://www.w3.org/1999/02/22-rdf-syntax-ns#"
   xmlns:svg="http://www.w3.org/2000/svg"
   xmlns="http://www.w3.org/2000/svg"
   xmlns:xlink="http://www.w3.org/1999/xlink"
   xmlns:sodipodi="http://sodipodi.sourceforge.net/DTD/sodipodi-0.dtd"
   xmlns:inkscape="http://www.inkscape.org/namespaces/inkscape"
   width="1920"
   height="400"
   viewBox="0 0 1920 400"
   version="1.1"
   id="svg8"
   inkscape:version="0.92.3 (2405546, 2018-03-11)"
   sodipodi:docname="l2banner-1920.svg"
   inkscape:export-filename="C:\projects\streamflow\branding\l2banner-1920.png"
   inkscape:export-xdpi="96"
   inkscape:export-ydpi="96">
  <defs
     id="defs2">
    <linearGradient
       inkscape:collect="always"
       id="linearGradient923">
      <stop
         style="stop-color:#2e66aa;stop-opacity:1"
         offset="0"
         id="stop919" />
      <stop
         style="stop-color:#562390;stop-opacity:1"
         offset="1"
         id="stop921" />
    </linearGradient>
    <filter
       style="color-interpolation-filters:sRGB"
       inkscape:label="Invert"
       id="filter895">
      <feColorMatrix
         type="hueRotate"
         values="180"
         result="color1"
         id="feColorMatrix891" />
      <feColorMatrix
         values="-1 0 0 0 1 0 -1 0 0 1 0 0 -1 0 1 -0.21 -0.72 -0.07 2 0 "
         result="color2"
         id="feColorMatrix893" />
    </filter>
    <linearGradient
       inkscape:collect="always"
       xlink:href="#linearGradient923"
       id="linearGradient925"
       x1="164.04901"
       y1="952.57355"
       x2="1472.3169"
       y2="728.12091"
       gradientUnits="userSpaceOnUse" />
    <linearGradient
       inkscape:collect="always"
       xlink:href="#linearGradient923"
       id="linearGradient927"
       gradientUnits="userSpaceOnUse"
       x1="164.04901"
       y1="952.57355"
       x2="1472.3169"
       y2="728.12091" />
    <linearGradient
       inkscape:collect="always"
       xlink:href="#linearGradient923"
       id="linearGradient929"
       gradientUnits="userSpaceOnUse"
       x1="164.04901"
       y1="952.57355"
       x2="1472.3169"
       y2="728.12091" />
  </defs>
  <sodipodi:namedview
     id="base"
     pagecolor="#999999"
     bordercolor="#666666"
     borderopacity="1.0"
     inkscape:pageopacity="0"
     inkscape:pageshadow="2"
     inkscape:zoom="0.7"
     inkscape:cx="1059.2406"
     inkscape:cy="318.37107"
     inkscape:document-units="px"
     inkscape:current-layer="layer1"
     showgrid="false"
     units="px"
     inkscape:showpageshadow="false"
     inkscape:pagecheckerboard="true"
     inkscape:window-width="1920"
     inkscape:window-height="1017"
     inkscape:window-x="-8"
     inkscape:window-y="-8"
     inkscape:window-maximized="1"
     inkscape:snap-bbox="true"
     inkscape:snap-text-baseline="true"
     inkscape:bbox-paths="true"
     inkscape:bbox-nodes="true"
     inkscape:snap-bbox-midpoints="true"
     inkscape:snap-bbox-edge-midpoints="true"
     inkscape:object-paths="true"
     inkscape:snap-intersection-paths="true"
     inkscape:snap-smooth-nodes="true"
     inkscape:snap-midpoints="true"
     inkscape:snap-others="true"
     inkscape:snap-object-midpoints="true"
     inkscape:snap-center="true"
     inkscape:snap-page="true" />
  <metadata
     id="metadata5">
    <rdf:RDF>
      <cc:Work
         rdf:about="">
        <dc:format>image/svg+xml</dc:format>
        <dc:type
           rdf:resource="http://purl.org/dc/dcmitype/StillImage" />
        <dc:title></dc:title>
      </cc:Work>
    </rdf:RDF>
  </metadata>
  <g
     inkscape:label="Layer 1"
     inkscape:groupmode="layer"
     id="layer1"
     transform="translate(0,-691.24998)">
    <g
       id="g909"
       style="fill:url(#linearGradient925);fill-opacity:1;stroke:none;stroke-opacity:1"
       transform="translate(141.81706,51.700507)">
      <path
         inkscape:connector-curvature="0"
         id="rect899"
         d="m 249.55241,726.52669 c -1.78212,-0.0205 -3.59892,0.20163 -5.41246,0.69858 -2.91897,0.79988 -9.02623,4.76362 -13.57219,8.80844 -4.54601,4.04483 -20.0689,17.74684 -34.4941,30.44942 -14.42521,12.70259 -27.53944,25.35194 -29.14327,28.11009 -3.63168,6.24552 -3.87298,18.84113 -0.48137,25.07513 2.91573,5.35935 7.47718,10.47074 14.55254,16.30487 2.87889,2.37382 9.96725,8.54955 15.75307,13.72483 46.05572,41.19594 48.28219,42.60177 59.85391,37.7668 6.0415,-2.5243 13.03924,-10.5761 13.01159,-14.97229 -0.0472,-7.51225 -2.90194,-11.00005 -24.35013,-29.75085 -23.87193,-20.86975 -26.7247,-24.74976 -26.7247,-36.35792 0,-9.20173 4.86387,-15.32125 28.34491,-35.64173 10.76079,-9.31239 20.34737,-18.81161 21.3005,-21.11266 4.57422,-11.04323 -6.16347,-22.96009 -18.6383,-23.10271 z m 41.77917,62.78617 c -3.75967,0.073 -7.75105,1.44276 -12.09877,4.12978 -9.46328,5.84863 -10.19142,19.70143 -1.40007,26.61904 2.98097,2.34567 16.89239,14.60294 33.27012,29.3135 11.04321,9.91903 13.61833,20.72955 7.91908,33.23784 -1.00222,2.19963 -11.55828,12.51937 -23.46079,22.93538 -21.11472,18.47758 -24.41765,22.50828 -24.41765,29.78609 -2e-5,6.87567 11.79123,17.05883 19.95912,17.23823 1.47307,0.0323 4.92284,-0.87886 7.66667,-2.02526 5.11495,-2.13719 66.64163,-55.08879 72.63947,-62.51612 9.08897,-11.25495 7.70835,-27.32514 -3.28151,-38.23056 -13.00382,-12.90398 -65.68082,-57.31179 -70.25026,-59.22286 -2.11804,-0.88582 -4.28962,-1.3089 -6.54541,-1.26506 z"
         style="opacity:1;fill:url(#linearGradient927);fill-opacity:1;stroke:none;stroke-width:33.41788483;stroke-linecap:round;stroke-linejoin:miter;stroke-miterlimit:4;stroke-dasharray:none;stroke-dashoffset:0;stroke-opacity:1;paint-order:normal" />
      <text
         id="text904"
         y="909.82147"
         x="407.14288"
         style="font-style:normal;font-variant:normal;font-weight:normal;font-stretch:normal;font-size:192px;line-height:1.25;font-family:'Microsoft JhengHei';-inkscape-font-specification:'Microsoft JhengHei';letter-spacing:0px;word-spacing:0px;fill:url(#linearGradient929);fill-opacity:1;stroke:none;stroke-opacity:1"
         xml:space="preserve"><tspan
           style="font-style:normal;font-variant:normal;font-weight:bold;font-stretch:normal;font-family:Muli;-inkscape-font-specification:'Muli Bold';fill:url(#linearGradient929);fill-opacity:1;stroke:none;stroke-opacity:1"
           y="909.82147"
           x="407.14288"
           id="tspan902"
           sodipodi:role="line">Streamflow</tspan></text>
    </g>
  </g>
</svg>
